<?xml version="1.0" encoding="UTF-8"?>
<svg version="1.1" viewBox="0 0 722 325" xml:space="preserve" xmlns="http://www.w3.org/2000/svg"><defs><style>.cls-1{fill:#4D77CF;}.cls-2{fill:#4DABCF;}</style></defs><g fill="#974ace" stroke-linecap="round" stroke-linejoin="round" stroke-width=".302"><path d="m253 111c-2.58 0.0971-4.76 1.64-6.99 2.75-23.4 11.7-47.3 22.4-70.1 35.1-6.41 3.56-11.3 9.46-14.4 16-2.22 4.61-3.35 9.72-3.35 14.9 5e-3 27.8-0.352 55.6 8e-3 83.5 0.0353 2.73 1.24 5.75 3.92 6.88 2.67 1.12 5.55-0.0237 7.99-1.25 24.1-12 48.7-23 72.2-36.1 6.15-3.43 10.7-9.25 13.5-15.6 1.67-3.83 2.4-8 2.39-12.2-4e-3 -29.4 0.194-58.7-8e-3 -88.1-0.0158-2.3-1.17-4.84-3.54-5.54-0.517-0.153-1.06-0.214-1.6-0.199zm-4.86 15c-0.772 3.87-1.75 7.76-1.74 11.7 0.0107 3.5 0.772 6.96 0.768 10.4-0.011 8.38-4.4 16.6-11.4 21.2-2.59 1.71-5.44 2.96-8.21 4.34l-8.26 4.11c3.38 2.42 6.87 4.66 10.2 7.2 1.68 1.3 1.53 3.72 0.631 5.56-0.492 1-1.29 2.14-1.63 3.06 3.43-1.05 7.25-0.438 10.3 1.43 2.94 1.79 5.48 4.6 6.09 8.03 0.113 0.642 0.653 2.21 0.314 2.31-1.23-0.898-2.62-2.08-4.25-1.79 2.94 2.25 4.75 5.86 4.73 9.6-0.0155 2.9-0.9 5.73-2.11 8.34-0.214-2.38-2-4.28-4.09-5.31-3.8-1.88-8.52-1.75-11.9-4.47-1.02-0.832 0.325 1.76 0.615 2.29 0.841 1.53 1.94 2.9 3.12 4.18-3.64-0.917-7.18-2.66-9.84-5.34-1.14-1.15-2.09-2.81-1.67-4.46-0.891 1.37-1.5 2.99-2.7 4.12-1.42 1.34-3.58 1.05-5.25 0.16-2.83-1.51-5.85-2.63-8.8-3.9-0.0153 5.23 0.168 10.5-0.0254 15.7-0.309 8.37-5.22 16.1-12.1 20.8-1.32 0.899-2.82 1.4-4.31 1.96-3.68 1.39-7.46 2.65-10.7 4.93-2.38 1.66-4.66 3.47-6.89 5.32 0.0471-8.34-0.174-16.7 0.123-25 0.287-8.06 4.75-15.9 11.7-20 2.69-1.54 5.51-2.85 8.29-4.23l6.61-3.29c-2-0.87-2.9-3.56-1.71-5.42-3.25-1.47-6.37-3.6-8.15-6.77-2.1-3.73-2.25-8.39-0.584-12.3 1.78-4.24 5.68-7.39 10.2-8.51 4.32-1.08 8.75 0.72 12.3 3.16 1.34-1.06 3.12-2.09 4.86-1.4 0.845 0.661 0.573-0.414 0.574-0.932 9e-3 -5.26-0.18-10.5 8e-3 -15.8 0.288-8.06 4.8-15.9 11.8-20 2.44-1.43 5.06-2.55 7.61-3.76zm-49.1 52.2c-4.89-0.203-8.8 4.79-8.11 9.64 0.43 3.03 3.06 5.1 5.64 6.38 0.655 0.65 0.866-0.384 1.12-0.832l7.35-12.7c-1.82-1.16-3.74-2.51-6-2.46z"/><path d="m53.5 109 30.7 69.9-34.4 45.3 25.3 12.7c6.7-8.92 14.5-19.5 23.3-31.6 0.367 0.736 1.98 4.47 4.82 11.2 2.85 6.62 5.83 13.5 8.95 20.7 3.21 7.24 6.7 15.1 10.5 23.5l27.1 13.6-34.7-78.5 31.3-40.2-24.4-12.2c-9.73 12.6-16.5 22-20.2 28.2-9-21-16.1-37.3-21.2-48.9z"/><path d="m294 130v82.6c12.3-0.0756 24.7 0.482 37-0.176 8.32-0.444 17.3-1.84 23.4-8.25 6.91-7.27 8.41-20 1.92-27.8-3.49-4.22-8.9-6.19-14.2-7.06 6.28-2.42 10.8-8.18 12-14.9 1.24-6.75-1.13-14-6.74-18.3-8.28-6.34-19.2-6.07-29.2-6.07zm120 0v82.6h19v-32.5h30.3v-16.5h-30.3v-16.6h32.9v-17zm55.3 0 23.4 82.6h17.4c6.14-19.1 12.7-38.1 18-57.4 5.51 19.2 11.5 38.3 17.3 57.4h17.3l23.9-82.6h-19.3c-5 18.4-10.1 36.8-14.2 55.5-5.25-18.6-11.3-37-17.2-55.5h-15.2c-5.51 17.6-12.7 34.8-16.5 52.8-0.464 2.19-0.446 3.48-1.13 0.381-3.95-17.9-8.83-35.5-13.4-53.2zm121 0 26.1 38.5-29.2 44.1h21.5c6.66-10.1 13.2-20.3 19.8-30.5 6.76 10.3 13.5 20.5 20.6 30.5h23l-29.5-43.2 26.6-39.4h-20.7c-5.92 8.89-11.9 17.8-17.2 27-5.95-9.04-11.9-18.1-18-27zm-268 16c3.1-5e-3 6.16 0.255 9.04 1.43 4.89 1.99 5.5 9.6 1.96 12.8-3.71 3.39-9.16 2.76-13.8 2.76h-6.49v-16.8c3.06 0.107 6.2-0.165 9.3-0.17zm47.8 29.9v13h30.2v-13zm-46.4 2.11c3.57-0.0151 7.12 0.137 10.6 0.895 4.75 1.03 7.19 6.2 6.05 10.9-1.19 4.93-6.74 6.42-11.2 6.32-5.38 0.202-10.8 0.0832-16.2 0.115v-18.1c3.55 0.0861 7.13-0.0963 10.7-0.111z"/></g><path d="m101 76.5-40.8 20.3 38.1 19.2 39.7-20.8z" fill="#894dcf"/><path d="m155 104-39.7 20.8 38.2 19.2 40.4-20.3z" fill="#ab4dcf"/><path d="m207 76.8-34.8 18.3 39 19.7 35.8-18z" fill="#c34dcf"/><path d="m154 50.1-35.6 17.8 37.1 18.7 34.5-18.4z" fill="#ab4dcf"/><style type="text/css">.st0{fill-rule:evenodd;clip-rule:evenodd;fill:#EC6F59;} .st1{fill-rule:evenodd;clip-rule:evenodd;fill:#FAD15C;}</style></svg>
