<?xml version="1.0" encoding="UTF-8"?>
<svg width="256" height="256" version="1.1" viewBox="0 0 256 256" xml:space="preserve" xmlns="http://www.w3.org/2000/svg"><defs><style>.cls-1{fill:#4D77CF;}.cls-2{fill:#4DABCF;}</style></defs><path transform="translate(1.75e-7 -8.13)" d="m128 24-35.6 17.8 37.1 18.7 34.5-18.4-36-18.1zm-53 26.4-40.8 20.3 38.1 19.2 39.7-20.8-37-18.7zm106 0.299-34.8 18.3 39 19.7 35.8-18-40-20zm-52 27.2-39.7 20.8 38.2 19.2 40.4-20.3-38.9-19.7zm-102 5 30.7 69.9-34.4 45.3 25.3 12.7c6.7-8.92 14.5-19.5 23.3-31.6 0.367 0.736 1.98 4.47 4.82 11.2 2.85 6.62 5.83 13.5 8.95 20.7 3.21 7.24 6.7 15.1 10.5 23.5l27.1 13.6-34.7-78.5 31.3-40.2-24.4-12.2c-9.73 12.6-16.5 22-20.2 28.2-9-21-16.1-37.3-21.2-48.9l-27.1-13.7zm200 2c-2.58 0.0971-4.76 1.64-6.99 2.75-23.4 11.7-47.3 22.4-70.1 35.1-6.41 3.56-11.3 9.46-14.4 16-2.22 4.61-3.35 9.72-3.35 14.9 5e-3 27.8-0.352 55.6 0.00781 83.5 0.0353 2.73 1.24 5.75 3.92 6.88 2.67 1.12 5.55-0.0237 7.99-1.25 24.1-12 48.7-23 72.2-36.1 6.15-3.43 10.7-9.25 13.5-15.6 1.67-3.83 2.4-8 2.39-12.2-4e-3 -29.4 0.194-58.7-0.00781-88.1-0.0158-2.3-1.17-4.84-3.54-5.54-0.517-0.153-1.06-0.214-1.6-0.199l-0.0195-0.141zm-4.86 15c-0.772 3.87-1.75 7.76-1.74 11.7 0.0107 3.5 0.772 6.96 0.768 10.4-0.011 8.38-4.4 16.6-11.4 21.2-2.59 1.71-5.44 2.96-8.21 4.34l-8.26 4.11c3.38 2.42 6.87 4.66 10.2 7.2 1.68 1.3 1.53 3.72 0.631 5.56-0.492 1-1.29 2.14-1.63 3.06 3.43-1.05 7.25-0.436 10.3 1.43 2.94 1.79 5.48 4.6 6.09 8.03 0.113 0.642 0.653 2.21 0.314 2.31-1.23-0.898-2.62-2.08-4.25-1.79 2.94 2.25 4.75 5.86 4.73 9.6-0.0155 2.9-0.901 5.73-2.11 8.34-0.214-2.38-2-4.28-4.09-5.31-3.8-1.88-8.52-1.75-11.9-4.47-1.02-0.832 0.325 1.76 0.615 2.29 0.841 1.53 1.94 2.9 3.12 4.18-3.64-0.917-7.18-2.66-9.84-5.34-1.14-1.15-2.09-2.81-1.67-4.46-0.891 1.37-1.5 2.99-2.7 4.12-1.42 1.34-3.58 1.05-5.25 0.16-2.83-1.51-5.85-2.63-8.8-3.9-0.0153 5.23 0.168 10.5-0.0254 15.7-0.309 8.37-5.22 16.1-12.1 20.8-1.32 0.899-2.82 1.4-4.31 1.96-3.68 1.39-7.46 2.65-10.7 4.93-2.38 1.66-4.66 3.47-6.89 5.32 0.0471-8.34-0.174-16.7 0.123-25 0.287-8.06 4.75-15.9 11.7-20 2.69-1.54 5.51-2.85 8.29-4.23l6.61-3.29c-2-0.87-2.9-3.56-1.71-5.42-3.25-1.47-6.37-3.6-8.15-6.77-2.1-3.73-2.25-8.39-0.584-12.3 1.78-4.24 5.68-7.39 10.2-8.51 4.32-1.08 8.75 0.72 12.3 3.16 1.34-1.06 3.12-2.09 4.86-1.4 0.845 0.661 0.573-0.414 0.574-0.932 9e-3 -5.26-0.18-10.5 0.00782-15.8 0.288-8.06 4.8-15.9 11.8-20 2.44-1.43 5.06-2.55 7.61-3.76l15.5-7.22zm-49.1 52.2c-4.89-0.203-8.8 4.79-8.11 9.64 0.43 3.03 3.06 5.1 5.64 6.38 0.655 0.65 0.865-0.384 1.12-0.832l7.35-12.7c-1.82-1.16-3.74-2.51-6-2.46v-0.0273z" fill="#fff"/><style type="text/css">.st0{fill-rule:evenodd;clip-rule:evenodd;fill:#EC6F59;} .st1{fill-rule:evenodd;clip-rule:evenodd;fill:#FAD15C;}</style></svg>
